<?xml version="1.0" encoding="utf-8"?>
<!-- Generator: Adobe Illustrator 19.1.0, SVG Export Plug-In . SVG Version: 6.00 Build 0)  -->
<svg version="1.1" id="Layer_1" xmlns="http://www.w3.org/2000/svg" xmlns:xlink="http://www.w3.org/1999/xlink" x="0px" y="0px"
	 viewBox="50 361 900 560" style="enable-background:new 50 361 900 560;" xml:space="preserve">
<style type="text/css">
	.st0{fill:#1F242D;}
	.st1{fill:#2C323D;}
	.st2{fill:#575E6B;}
	.st3{fill:#A5ACB5;}
	.st4{fill:#D7DCE0;}
	.st5{fill:url(#SVGID_1_);}
	.st6{fill:url(#SVGID_2_);}
	.st7{fill:url(#SVGID_3_);}
	.st8{fill:url(#SVGID_4_);}
	.st9{fill:url(#SVGID_5_);}
	.st10{fill:url(#SVGID_6_);}
	.st11{fill:url(#SVGID_7_);}
	.st12{fill:url(#SVGID_8_);}
	.st13{fill:url(#SVGID_9_);}
	.st14{fill:url(#SVGID_10_);}
	.st15{fill:url(#SVGID_11_);}
	.st16{fill:url(#SVGID_12_);}
	.st17{fill:url(#SVGID_13_);}
	.st18{fill:url(#SVGID_14_);}
</style>
<g>
	<g>
		<path class="st0" d="M609.1,863.9c-1.7,0-3.4-1-4.1-2.6l-5.2-11c-1.1-2.2-0.2-4.9,2-6c7.3-3.7,14.6-7.9,21.5-12.5
			c0.7-0.5,1.6-0.7,2.5-0.7c1.5,0,2.9,0.7,3.7,2l6.9,10c0.7,1,0.9,2.2,0.7,3.4c-0.2,1.2-0.9,2.3-2,2.9c-7.7,5.1-15.8,9.8-24,13.9
			C610.5,863.7,609.8,863.9,609.1,863.9L609.1,863.9z"/>
		<path class="st1" d="M625.7,832.1c1.2,0,2.3,0.6,2.9,1.5l6.9,10c0.5,0.8,0.7,1.7,0.6,2.7c-0.2,0.9-0.7,1.8-1.5,2.3
			c-7.7,5.1-15.7,9.7-23.9,13.9c-0.5,0.3-1,0.4-1.6,0.4c-1.4,0-2.6-0.8-3.2-2l-5.2-11c-0.8-1.7-0.1-3.8,1.6-4.7
			c7.4-3.8,14.6-8,21.6-12.5C624.4,832.3,625,832.1,625.7,832.1 M625.7,830.1c-1,0-2.1,0.3-3,0.9c-6.9,4.5-14,8.7-21.4,12.4
			c-2.7,1.4-3.8,4.6-2.5,7.3l5.2,11c1,2,2.9,3.2,5,3.2c0.8,0,1.7-0.2,2.5-0.6c8.3-4.2,16.3-8.8,24.1-14c2.6-1.7,3.3-5.2,1.5-7.8
			l-6.9-10C629.2,831,627.5,830.1,625.7,830.1L625.7,830.1z"/>
	</g>
	<g>
		<path class="st0" d="M657.5,476.9c-1.2,0-2.2-0.4-3.1-1.2c-25.4-23.8-56.3-41.7-89.4-51.8c-2.4-0.7-3.7-3.1-3-5.5l3.2-11.7
			c0.5-2,2.3-3.3,4.4-3.3c0.4,0,0.9,0.1,1.3,0.2c36.8,11.1,69.9,30.2,98.2,56.8c0.9,0.9,1.4,2,1.4,3.2c0,1.2-0.4,2.4-1.3,3.3
			l-8.5,8.7C659.9,476.4,658.7,476.9,657.5,476.9L657.5,476.9z"/>
		<path class="st1" d="M569.6,404.3c0.3,0,0.7,0.1,1,0.2c36.7,11,69.6,30.1,97.8,56.6c0.7,0.7,1.1,1.6,1.1,2.5c0,1-0.3,1.9-1,2.5
			l-8.5,8.7c-0.7,0.7-1.6,1.1-2.5,1.1c-0.9,0-1.7-0.3-2.4-0.9c-25.5-23.9-56.6-41.9-89.8-52c-1.8-0.5-2.9-2.5-2.4-4.3l3.2-11.7
			C566.6,405.4,568,404.3,569.6,404.3 M569.6,402.3c-2.4,0-4.7,1.6-5.3,4.1l-3.2,11.7c-0.8,2.9,0.8,5.9,3.7,6.8
			c33.7,10.2,64,28.1,89,51.6c1.1,1,2.4,1.5,3.8,1.5c1.4,0,2.9-0.6,3.9-1.7l8.5-8.7c2.2-2.2,2.1-5.8-0.2-7.9
			c-28.4-26.7-62.1-46.1-98.6-57.1C570.6,402.4,570.1,402.3,569.6,402.3L569.6,402.3z"/>
	</g>
	<g>
		<path class="st0" d="M551.7,420.1c-0.3,0-0.7,0-1-0.1c-16.9-3.9-34.2-5.9-51.7-5.9c-4.1,0-8.3,0.1-12.5,0.3c-0.1,0-0.2,0-0.2,0
			c-2.3,0-4.3-1.8-4.5-4.2l-0.9-12c-0.1-1.2,0.3-2.4,1.1-3.3c0.8-0.9,1.9-1.5,3.2-1.5c4.6-0.3,9.3-0.4,13.9-0.4
			c19.2,0,38.2,2.2,56.7,6.5c1.2,0.3,2.2,1,2.9,2.1c0.6,1.1,0.8,2.3,0.5,3.5l-3,11.7C555.6,418.8,553.8,420.1,551.7,420.1z"/>
		<path class="st1" d="M499,394c19.1,0,38.1,2.2,56.5,6.5c0.9,0.2,1.7,0.8,2.2,1.6c0.5,0.8,0.6,1.8,0.4,2.7l-3,11.7
			c-0.4,1.6-1.8,2.6-3.4,2.6c-0.3,0-0.5,0-0.8-0.1c-16.9-4-34.4-6-51.9-6c-4.1,0-8.4,0.1-12.5,0.3c-0.1,0-0.1,0-0.2,0
			c-1.8,0-3.3-1.4-3.5-3.3l-0.9-12c-0.1-1,0.2-1.9,0.9-2.6c0.6-0.7,1.5-1.2,2.5-1.2C489.8,394.1,494.4,394,499,394 M499,392
			c-4.7,0-9.3,0.1-13.9,0.4c-3.1,0.2-5.5,2.9-5.2,6l0.9,12c0.2,2.9,2.6,5.1,5.5,5.1c0.1,0,0.2,0,0.3,0c4.1-0.2,8.2-0.3,12.4-0.3
			c17.7,0,34.9,2,51.5,5.9c0.4,0.1,0.8,0.1,1.3,0.1c2.5,0,4.7-1.7,5.3-4.1l3-11.7c0.8-3-1.1-6.1-4.1-6.8
			C537.5,394.2,518.4,392,499,392L499,392z"/>
	</g>
	<g>
		<path class="st0" d="M703.2,779.7c-0.9,0-1.8-0.3-2.6-0.8l-10-6.9c-2-1.4-2.6-4.2-1.2-6.2c24.2-37,37-80,37-124.3
			c0-17.4-2-34.8-5.9-51.7c-0.6-2.4,0.9-4.8,3.3-5.4l11.7-3c0.4-0.1,0.8-0.1,1.1-0.1c2.1,0,3.9,1.5,4.4,3.5
			c4.3,18.5,6.5,37.6,6.5,56.7c0,48.7-14,95.8-40.5,136.1C706.1,778.9,704.7,779.7,703.2,779.7L703.2,779.7z"/>
		<path class="st1" d="M736.6,582.2c1.7,0,3.1,1.1,3.5,2.8c4.3,18.4,6.5,37.4,6.5,56.5c0,48.5-13.9,95.4-40.3,135.5
			c-0.7,1-1.8,1.6-3,1.6c-0.7,0-1.4-0.2-2-0.6l-10-6.9c-1.6-1.1-2-3.2-1-4.8c24.3-37.2,37.2-80.3,37.2-124.8c0-17.5-2-35-6-51.9
			c-0.4-1.9,0.7-3.7,2.6-4.2l11.7-3C736,582.3,736.3,582.2,736.6,582.2 M736.6,580.2c-0.5,0-0.9,0.1-1.4,0.2l-11.7,3
			c-2.9,0.8-4.7,3.7-4,6.6c3.9,16.5,5.9,33.8,5.9,51.5c0,45.6-13.6,88.1-36.9,123.7c-1.6,2.5-1,5.9,1.5,7.6l10,6.9c1,0.7,2,1,3.1,1
			c1.8,0,3.6-0.9,4.7-2.5c26.5-40.3,40.7-87.4,40.7-136.6c0-19.4-2.2-38.5-6.5-57C741.4,582,739.1,580.2,736.6,580.2L736.6,580.2z"
			/>
	</g>
	<g>
		<path class="st0" d="M721,578.7c-2,0-3.7-1.3-4.3-3.2c-10.1-33.1-28-64-51.8-89.4c-1.7-1.8-1.6-4.6,0.1-6.3l8.7-8.5
			c0.9-0.8,2-1.3,3.2-1.3c1.3,0,2.5,0.5,3.3,1.4c26.7,28.3,45.8,61.4,56.8,98.2c0.4,1.2,0.2,2.4-0.4,3.5c-0.6,1.1-1.6,1.9-2.8,2.2
			l-11.7,3.2C721.8,578.7,721.4,578.7,721,578.7L721,578.7z"/>
		<path class="st1" d="M676.8,471c1,0,1.9,0.4,2.6,1.1c26.5,28.2,45.6,61.1,56.6,97.8c0.3,0.9,0.2,1.9-0.3,2.7
			c-0.5,0.8-1.2,1.4-2.1,1.7l-11.7,3.2c-0.3,0.1-0.6,0.1-0.9,0.1c-1.5,0-2.9-1-3.4-2.5c-10.1-33.2-28.1-64.3-52-89.8
			c-1.3-1.4-1.3-3.6,0.1-4.9l8.7-8.5C675,471.3,675.9,471,676.8,471 M676.8,469c-1.4,0-2.8,0.5-3.9,1.6l-8.7,8.5
			c-2.1,2.1-2.2,5.5-0.2,7.7c23.5,25,41.3,55.4,51.6,89c0.7,2.4,2.9,3.9,5.3,3.9c0.5,0,1-0.1,1.5-0.2l11.7-3.2c3-0.8,4.7-4,3.8-7
			c-11-36.5-30.3-70.2-57.1-98.6C679.8,469.6,678.3,469,676.8,469L676.8,469z"/>
	</g>
	<g>
		<path class="st0" d="M645.2,841.4c-1.5,0-2.8-0.7-3.7-1.9l-7.1-9.9c-1.4-2-1-4.8,1-6.2c17.2-13,32.6-28.3,45.5-45.5
			c0.9-1.1,2.2-1.8,3.6-1.8c0.9,0,1.9,0.3,2.6,0.8l9.9,7.1c1,0.7,1.7,1.8,1.8,3c0.2,1.2-0.1,2.4-0.9,3.4
			c-7.1,9.4-14.9,18.5-23.3,26.8c-8.4,8.4-17.4,16.2-26.8,23.3C647.1,841.1,646.2,841.4,645.2,841.4
			C645.2,841.4,645.2,841.4,645.2,841.4z"/>
		<path class="st1" d="M684.5,777.1c0.7,0,1.4,0.2,2,0.7l9.9,7.1c0.8,0.6,1.3,1.4,1.4,2.3c0.1,1-0.1,1.9-0.7,2.7
			c-7.1,9.4-14.9,18.4-23.2,26.7c-8.3,8.3-17.3,16.1-26.7,23.2c-0.6,0.5-1.4,0.7-2.1,0.7c-1.1,0-2.2-0.6-2.9-1.5l-7.1-9.9
			c-1.1-1.6-0.8-3.7,0.7-4.9c17.3-13,32.7-28.4,45.7-45.7C682.3,777.6,683.4,777.1,684.5,777.1 M684.5,775.1c-1.7,0-3.3,0.8-4.4,2.2
			c-12.9,17.2-28.2,32.4-45.3,45.3c-2.4,1.8-2.9,5.2-1.2,7.6l7.1,9.9c1.1,1.5,2.8,2.3,4.5,2.3c1.2,0,2.3-0.4,3.3-1.1
			c9.4-7.1,18.4-14.9,26.9-23.4c8.5-8.5,16.3-17.5,23.4-26.9c1.9-2.5,1.3-6-1.2-7.9l-9.9-7.1C686.7,775.4,685.6,775.1,684.5,775.1
			L684.5,775.1z"/>
	</g>
	<g>
		<path class="st0" d="M277,578.7c-0.4,0-0.8-0.1-1.2-0.2l-11.7-3.2c-1.2-0.3-2.2-1.1-2.8-2.2c-0.6-1.1-0.7-2.3-0.4-3.5
			c11.7-38.9,33.2-74.8,62.3-103.8c29.1-29.1,65-50.6,103.8-62.3c0.4-0.1,0.9-0.2,1.3-0.2c2,0,3.8,1.4,4.4,3.3l3.2,11.7
			c0.7,2.3-0.7,4.8-3,5.5c-35.5,10.8-68.3,30.5-94.8,56.9c-26.4,26.4-46.1,59.2-56.9,94.8C280.8,577.5,279.1,578.7,277,578.7
			C277,578.7,277,578.7,277,578.7z"/>
		<path class="st1" d="M428.4,404.3c1.6,0,3,1.1,3.4,2.6l3.2,11.7c0.5,1.8-0.6,3.8-2.4,4.3c-35.7,10.8-68.6,30.6-95.2,57.2
			c-26.6,26.6-46.3,59.5-57.2,95.2c-0.4,1.5-1.8,2.5-3.4,2.5c-0.3,0-0.6,0-0.9-0.1l-11.7-3.2c-0.9-0.3-1.7-0.9-2.1-1.7
			c-0.5-0.8-0.6-1.8-0.3-2.8c11.6-38.7,33.1-74.5,62-103.4c28.9-28.9,64.7-50.4,103.4-62C427.8,404.4,428.1,404.3,428.4,404.3
			 M428.4,402.3c-0.5,0-1.1,0.1-1.6,0.2c-39,11.7-74.7,33-104.3,62.5c-29.6,29.6-50.8,65.3-62.5,104.3c-0.9,3,0.8,6.1,3.8,7
			l11.7,3.2c0.5,0.1,1,0.2,1.5,0.2c2.4,0,4.6-1.5,5.3-3.9c21.9-72.1,78.9-129.1,151-151c2.9-0.9,4.5-3.9,3.7-6.8l-3.2-11.7
			C433.1,403.9,430.9,402.3,428.4,402.3L428.4,402.3z"/>
	</g>
	<g>
		<path class="st0" d="M274.7,742.2c-1.8,0-3.5-1.1-4.2-2.8c-3.6-8.5-6.8-17.3-9.5-26.1c-0.4-1.2-0.2-2.4,0.4-3.5
			c0.6-1.1,1.6-1.9,2.8-2.2l11.7-3.2c0.4-0.1,0.8-0.2,1.2-0.2c2,0,3.7,1.3,4.3,3.2c2.4,7.9,5.3,15.8,8.5,23.4c1,2.3,0,4.9-2.3,5.9
			l-11.1,5C275.9,742.1,275.3,742.2,274.7,742.2L274.7,742.2z"/>
		<path class="st1" d="M277,705.3c1.5,0,2.9,1,3.4,2.5c2.4,7.9,5.3,15.8,8.6,23.5c0.8,1.8,0,3.8-1.8,4.6l-11.1,5
			c-0.5,0.2-1,0.3-1.5,0.3c-1.4,0-2.7-0.8-3.3-2.2c-3.6-8.5-6.8-17.2-9.4-26c-0.3-0.9-0.2-1.9,0.3-2.7c0.5-0.8,1.2-1.4,2.2-1.7
			l11.7-3.2C276.4,705.3,276.7,705.3,277,705.3 M277,703.3c-0.5,0-1,0.1-1.5,0.2l-11.7,3.2c-3,0.8-4.7,4-3.8,6.9
			c2.7,8.9,5.9,17.6,9.5,26.2c0.9,2.1,3,3.4,5.1,3.4c0.8,0,1.5-0.2,2.3-0.5l11.1-5c2.7-1.2,4-4.4,2.8-7.2
			c-3.2-7.6-6.1-15.3-8.5-23.3C281.6,704.8,279.4,703.3,277,703.3L277,703.3z"/>
	</g>
	<g>
		<path class="st0" d="M388.9,863.9c-0.7,0-1.4-0.2-2.1-0.5c-23.4-11.9-44.8-27.4-63.6-46.2c-18.8-18.8-34.3-40.2-46.2-63.6
			c-0.6-1.1-0.7-2.4-0.3-3.5c0.4-1.2,1.2-2.1,2.3-2.6l11-5.2c0.6-0.3,1.3-0.4,2-0.4c1.7,0,3.3,0.9,4,2.5
			c21.8,42.8,57.3,78.4,100.1,100.1c2.2,1.1,3.1,3.7,2,6l-5.2,11C392.3,862.9,390.7,863.9,388.9,863.9L388.9,863.9z"/>
		<path class="st1" d="M292.1,742.8c1.3,0,2.5,0.7,3.1,1.9c10.9,21.5,25.2,41.1,42.3,58.2s36.7,31.4,58.2,42.3
			c1.7,0.9,2.4,2.9,1.6,4.7l-5.2,11c-0.6,1.2-1.8,2-3.2,2c-0.6,0-1.1-0.1-1.6-0.4c-23.3-11.8-44.6-27.3-63.3-46
			c-18.7-18.7-34.2-40-46-63.3c-0.4-0.9-0.5-1.9-0.2-2.8c0.3-0.9,1-1.6,1.8-2l11-5.2C291.1,742.9,291.6,742.8,292.1,742.8
			 M292.1,740.8c-0.8,0-1.6,0.2-2.4,0.5l-11,5.2c-2.8,1.3-4,4.7-2.5,7.5c11.8,23.3,27.4,44.8,46.4,63.8c19,19,40.5,34.6,63.8,46.4
			c0.8,0.4,1.7,0.6,2.5,0.6c2.1,0,4.1-1.2,5-3.2l5.2-11c1.3-2.7,0.2-5.9-2.5-7.3c-42.9-21.8-77.9-56.8-99.7-99.7
			C296.1,741.9,294.1,740.8,292.1,740.8L292.1,740.8z"/>
	</g>
	<g>
		<path class="st0" d="M499,890c-4.6,0-9.2-0.1-13.9-0.4c-1.2-0.1-2.4-0.6-3.2-1.5c-0.8-0.9-1.2-2.1-1.1-3.3l0.9-12
			c0.2-2.3,2.2-4.2,4.5-4.2c0.1,0,0.2,0,0.2,0c4.1,0.2,8.3,0.3,12.5,0.3c31,0,61-6.2,89.3-18.3c0.6-0.2,1.2-0.4,1.8-0.4
			c1.8,0,3.4,1,4.1,2.7l5,11.1c0.5,1.1,0.5,2.4,0.1,3.5c-0.4,1.2-1.3,2.1-2.5,2.5C566,883.3,533.1,890,499,890z"/>
		<path class="st1" d="M590.1,851.2c1.4,0,2.6,0.8,3.2,2.1l5,11.1c0.4,0.9,0.4,1.8,0.1,2.7c-0.3,0.9-1,1.6-1.9,2
			C565.7,882.3,532.9,889,499,889c-4.6,0-9.2-0.1-13.8-0.4c-1-0.1-1.8-0.5-2.5-1.2c-0.6-0.7-0.9-1.7-0.9-2.6l0.9-12
			c0.1-1.8,1.7-3.3,3.5-3.3c0.1,0,0.1,0,0.2,0c4.2,0.2,8.4,0.3,12.5,0.3c31.1,0,61.3-6.2,89.7-18.4
			C589.2,851.3,589.6,851.2,590.1,851.2 M590.1,849.2c-0.7,0-1.5,0.1-2.2,0.4c-27.3,11.7-57.4,18.2-88.9,18.2
			c-4.2,0-8.3-0.1-12.4-0.3c-0.1,0-0.2,0-0.3,0c-2.9,0-5.3,2.2-5.5,5.1l-0.9,12c-0.2,3.1,2.1,5.8,5.2,6c4.6,0.3,9.3,0.4,13.9,0.4
			c34.4,0,67.7-6.9,98.3-20.1c2.9-1.2,4.2-4.6,2.9-7.4l-5-11.1C594.2,850.4,592.2,849.2,590.1,849.2L590.1,849.2z"/>
	</g>
	<g>
		<path class="st0" d="M261.4,701.8c-2.1,0-3.9-1.5-4.4-3.5c-4.3-18.5-6.5-37.6-6.5-56.7s2.2-38.2,6.5-56.7c0.5-2.1,2.3-3.5,4.4-3.5
			c0.4,0,0.8,0,1.1,0.1l11.7,3c2.4,0.6,3.8,3,3.3,5.4c-3.9,16.9-5.9,34.2-5.9,51.7s2,34.8,5.9,51.7c0.6,2.4-0.9,4.8-3.3,5.4l-11.7,3
			C262.2,701.7,261.8,701.8,261.4,701.8z"/>
		<path class="st1" d="M261.4,582.2c0.3,0,0.6,0,0.9,0.1l11.7,3c1.9,0.5,3,2.3,2.6,4.2c-4,16.9-6,34.4-6,51.9c0,17.5,2,35,6,51.9
			c0.4,1.9-0.7,3.7-2.6,4.2l-11.7,3c-0.3,0.1-0.6,0.1-0.9,0.1c-1.7,0-3.1-1.1-3.5-2.8c-4.3-18.4-6.5-37.4-6.5-56.5
			c0-19.1,2.2-38.1,6.5-56.5C258.3,583.4,259.8,582.2,261.4,582.2 M261.4,580.2c-2.5,0-4.8,1.7-5.4,4.3c-4.3,18.5-6.5,37.5-6.5,57
			c0,19.4,2.2,38.5,6.5,57c0.6,2.6,2.9,4.3,5.4,4.3c0.5,0,0.9-0.1,1.4-0.2l11.7-3c2.9-0.8,4.7-3.7,4-6.6
			c-3.9-16.5-5.9-33.8-5.9-51.5c0-17.7,2-34.9,5.9-51.5c0.7-2.9-1.1-5.8-4-6.6l-11.7-3C262.3,580.3,261.9,580.2,261.4,580.2
			L261.4,580.2z"/>
	</g>
	<g>
		<path class="st0" d="M446.3,420.2c-2.1,0-3.8-1.4-4.4-3.4l-3-11.7c-0.3-1.2-0.1-2.4,0.5-3.5c0.6-1.1,1.7-1.8,2.9-2.1
			c9-2.1,18.2-3.7,27.3-4.8c0.2,0,0.4,0,0.5,0c2.4,0,4.3,1.8,4.5,4.1l1.2,12c0.2,2.4-1.5,4.6-3.9,4.9c-8.2,1-16.5,2.4-24.5,4.3
			C447,420.1,446.6,420.2,446.3,420.2L446.3,420.2z"/>
		<path class="st1" d="M470.1,395.7c1.8,0,3.4,1.4,3.5,3.2l1.2,12c0.2,1.9-1.2,3.6-3.1,3.8c-8.3,1-16.6,2.4-24.6,4.3
			c-0.3,0.1-0.5,0.1-0.8,0.1c-1.6,0-3-1.1-3.4-2.6l-3-11.7c-0.2-0.9-0.1-1.9,0.4-2.7c0.5-0.8,1.3-1.4,2.2-1.6
			c8.9-2.1,18.1-3.7,27.2-4.7C469.8,395.7,470,395.7,470.1,395.7 M470.1,393.7c-0.2,0-0.4,0-0.7,0c-9.3,1.1-18.4,2.7-27.4,4.8
			c-3,0.7-4.9,3.8-4.1,6.8l3,11.7c0.6,2.5,2.9,4.1,5.3,4.1c0.4,0,0.8,0,1.2-0.1c8-1.9,16.1-3.3,24.4-4.3c3-0.4,5.1-3,4.8-6l-1.2-12
			C475.3,395.8,472.9,393.7,470.1,393.7L470.1,393.7z"/>
	</g>
	<g>
		<path class="st0" d="M470.1,888.3c-0.2,0-0.4,0-0.5,0c-23.7-2.8-46.7-8.9-68.5-18.3c-1.1-0.5-2-1.4-2.5-2.5
			c-0.4-1.1-0.4-2.4,0.1-3.5l5-11.1c0.7-1.6,2.4-2.7,4.1-2.7c0.6,0,1.2,0.1,1.8,0.4c19.8,8.5,40.7,14.1,62.2,16.7
			c2.4,0.3,4.2,2.5,4,4.9l-1.2,12C474.4,886.5,472.5,888.3,470.1,888.3C470.1,888.3,470.1,888.3,470.1,888.3z"/>
		<path class="st1" d="M407.9,851.2c0.5,0,0.9,0.1,1.4,0.3c19.9,8.5,40.9,14.2,62.4,16.7c1.9,0.2,3.3,1.9,3.1,3.8l-1.2,12
			c-0.2,1.8-1.7,3.2-3.5,3.2c-0.1,0-0.3,0-0.4,0c-23.6-2.8-46.5-8.9-68.2-18.2c-0.9-0.4-1.6-1.1-1.9-2c-0.3-0.9-0.3-1.9,0.1-2.7
			l5-11.1C405.2,852,406.5,851.2,407.9,851.2 M407.9,849.2c-2.1,0-4.1,1.2-5,3.2l-5,11.1c-1.3,2.8,0,6.2,2.9,7.4
			c21.8,9.3,44.9,15.5,68.8,18.3c0.2,0,0.4,0,0.7,0c2.8,0,5.2-2.1,5.5-5l1.2-12c0.3-3-1.9-5.7-4.8-6c-21.7-2.6-42.5-8.3-61.9-16.6
			C409.3,849.4,408.6,849.2,407.9,849.2L407.9,849.2z"/>
	</g>
</g>
<g>
	<circle class="st2" cx="499" cy="403.6" r="3.5"/>
	<circle class="st3" cx="457.7" cy="407.2" r="3.5"/>
	<circle class="st2" cx="417.6" cy="417.9" r="3.5"/>
	<circle class="st2" cx="380" cy="435.4" r="3.5"/>
	<circle class="st2" cx="346" cy="459.2" r="3.5"/>
	<circle class="st2" cx="316.7" cy="488.5" r="3.5"/>
	<circle class="st2" cx="292.9" cy="522.5" r="3.5"/>
	<circle class="st2" cx="275.4" cy="560.1" r="3.5"/>
	<circle class="st3" cx="264.7" cy="600.2" r="3.5"/>
	<circle class="st3" cx="261.1" cy="641.5" r="3.5"/>
	<circle class="st3" cx="264.7" cy="682.8" r="3.5"/>
	<circle class="st4" cx="275.4" cy="722.9" r="3.5"/>
	<circle class="st2" cx="292.9" cy="760.5" r="3.5"/>
	<circle class="st2" cx="316.7" cy="794.5" r="3.5"/>
	<circle class="st2" cx="346" cy="823.8" r="3.5"/>
	<circle class="st2" cx="380" cy="847.6" r="3.5"/>
	<circle class="st4" cx="417.6" cy="865.1" r="3.5"/>
	<circle class="st4" cx="457.7" cy="875.8" r="3.5"/>
	<circle class="st2" cx="499" cy="879.4" r="3.5"/>
	<circle class="st2" cx="540.3" cy="875.8" r="3.5"/>
	<circle class="st2" cx="580.4" cy="865.1" r="3.5"/>
	<circle class="st3" cx="618" cy="847.6" r="3.5"/>
	<circle class="st2" cx="652" cy="823.8" r="3.5"/>
	<circle class="st2" cx="681.3" cy="794.5" r="3.5"/>
	<circle class="st3" cx="705.1" cy="760.5" r="3.5"/>
	<circle class="st3" cx="722.6" cy="722.9" r="3.5"/>
	<circle class="st3" cx="733.3" cy="682.8" r="3.5"/>
	<circle class="st3" cx="736.9" cy="641.5" r="3.5"/>
	<circle class="st3" cx="733.3" cy="600.2" r="3.5"/>
	<circle class="st2" cx="722.6" cy="560.1" r="3.5"/>
	<circle class="st2" cx="705.1" cy="522.5" r="3.5"/>
	<circle class="st2" cx="681.3" cy="488.5" r="3.5"/>
	<circle class="st4" cx="652" cy="459.2" r="3.5"/>
	<circle class="st4" cx="618" cy="435.4" r="3.5"/>
	<circle class="st4" cx="580.4" cy="417.9" r="3.5"/>
	<circle class="st2" cx="540.3" cy="407.2" r="3.5"/>
	<circle class="st2" cx="398.4" cy="425.8" r="3.5"/>
	<circle class="st2" cx="362.5" cy="446.6" r="3.5"/>
	<circle class="st2" cx="330.7" cy="473.2" r="3.5"/>
	<circle class="st2" cx="304.1" cy="505" r="3.5"/>
	<circle class="st2" cx="283.3" cy="540.9" r="3.5"/>
	<circle class="st3" cx="262" cy="620.8" r="3.5"/>
	<circle class="st3" cx="262" cy="662.2" r="3.5"/>
	<circle class="st2" cx="304.1" cy="778" r="3.5"/>
	<circle class="st2" cx="330.7" cy="809.8" r="3.5"/>
	<circle class="st2" cx="362.5" cy="836.4" r="3.5"/>
	<circle class="st4" cx="437.4" cy="871.3" r="3.5"/>
	<circle class="st2" cx="519.7" cy="878.5" r="3.5"/>
	<circle class="st2" cx="560.6" cy="871.3" r="3.5"/>
	<circle class="st2" cx="667.3" cy="809.8" r="3.5"/>
	<circle class="st3" cx="714.7" cy="742.1" r="3.5"/>
	<circle class="st3" cx="728.8" cy="703.1" r="3.5"/>
	<circle class="st3" cx="736" cy="662.2" r="3.5"/>
	<circle class="st3" cx="736" cy="620.8" r="3.5"/>
	<circle class="st2" cx="714.7" cy="540.9" r="3.5"/>
	<circle class="st2" cx="693.9" cy="505" r="3.5"/>
	<circle class="st4" cx="635.5" cy="446.6" r="3.5"/>
	<circle class="st4" cx="599.6" cy="425.8" r="3.5"/>
	<circle class="st2" cx="519.7" cy="404.5" r="3.5"/>
</g>
<g>
	<linearGradient id="SVGID_1_" gradientUnits="userSpaceOnUse" x1="509.4911" y1="435.7053" x2="494.4749" y2="612.4345">
		<stop  offset="0" style="stop-color:#575E6B"/>
		<stop  offset="1" style="stop-color:#FF8564"/>
	</linearGradient>
	<path class="st5" d="M540.8,407.5l-1-0.6c-42.8,66.5-59.4,150.3-44.4,221.9c-21-69.8-11.9-154.3,24.9-224l-1-0.5
		c-36.9,70-46.1,154.9-24.9,224.9c-27-67.7-25.3-152.7,5.2-225.4l-1.1-0.4c-32.5,77.4-32.5,168.7,0,238.4l0.5-0.2l0.6-0.2
		C479.7,567.4,495.5,477.7,540.8,407.5z"/>
	<linearGradient id="SVGID_2_" gradientUnits="userSpaceOnUse" x1="451.5626" y1="430.6805" x2="482.7501" y2="622.4259">
		<stop  offset="0" style="stop-color:#A5ACB5"/>
		<stop  offset="1" style="stop-color:#FF8564"/>
	</linearGradient>
	<path class="st6" d="M498.5,641.8c-44.1-63-60-153-41.4-234.8l1.1,0.3c-18.5,81.5-2.7,171.1,41.2,233.9L498.5,641.8z"/>
	<linearGradient id="SVGID_3_" gradientUnits="userSpaceOnUse" x1="349.3146" y1="491.8557" x2="483.8829" y2="621.8036">
		<stop  offset="0" style="stop-color:#575E6B"/>
		<stop  offset="1" style="stop-color:#FF8564"/>
	</linearGradient>
	<path class="st7" d="M499.4,641.1c-54.2-54.2-85.3-139.7-81.2-223.2l-1.2-0.1c-3.9,79,23.7,159.8,72.5,214.4
		c-53.1-49.9-87.5-127.7-90.5-206.4l-1.2,0c3.1,79.1,37.6,157.2,90.9,207.3c-57.2-45.1-98.3-119.6-108.1-197.8l-1.1,0.1
		c9.9,78.5,51.1,153.3,108.6,198.6c-61-39.9-108.3-110.6-125-187.6l-1.1,0.2C378.7,524,426.2,595,487.4,635
		c-64.2-34.5-117.5-100.7-140.8-176l-1.1,0.3c23.4,75.6,77,142.1,141.4,176.7c-67-28.7-125.9-90.1-155.6-163l-1.1,0.4
		c29.9,73.2,89,134.8,156.3,163.7c-69.2-22.8-133.2-78.8-169.3-148.9l-1,0.5c36.2,70.4,100.5,126.6,170,149.4
		c-70.9-16.7-139.6-66.9-181.6-133.5l-1,0.6c42.2,66.9,111.1,117.3,182.3,134.1C413.8,629,341,584.9,293.4,522.2l-0.9,0.7
		c47.8,63,120.9,107.2,193.3,117.7c-72.7-4.1-149.1-41.6-202-100l-0.9,0.8c53.1,58.6,129.8,96.2,202.8,100.4
		c-72.8,2.2-152.1-28.5-210-82l-0.8,0.8c56.1,51.9,132.2,82.4,203.2,82.4c7,0,13.9-0.3,20.8-0.9l-0.1-0.6L499.4,641.1z"/>
	<linearGradient id="SVGID_4_" gradientUnits="userSpaceOnUse" x1="275.5481" y1="646.3297" x2="465.5609" y2="639.3991">
		<stop  offset="0" style="stop-color:#A5ACB5"/>
		<stop  offset="1" style="stop-color:#FF8564"/>
	</linearGradient>
	<path class="st8" d="M499,641.5l-0.2-0.6c-74,19.8-163.6,4-233.9-41.2l-0.6,1c50.4,32.5,110.7,49.8,168.2,49.8
		c18.3,0,36.3-1.8,53.6-5.4c-69.7,21-154.3,11.8-223.9-24.9l-0.5,1c45.2,23.8,96.7,36.1,146.3,36.1c27.2,0,53.8-3.7,78.6-11.2
		c-67.7,27-152.7,25.3-225.3-5.2l-0.4,1.1c38.7,16.3,80.8,24.4,122.1,24.4c36.5,0,72.3-6.4,104.2-19.1
		c-65.1,32.8-149.9,38.5-225,14.4l-0.4,1.1c31,10,63.7,14.8,96,14.8c46.1,0,91.3-9.9,129.7-29.3c-61.9,38.3-145.9,51.3-222.7,33.9
		l-0.3,1.1c22.6,5.1,45.9,7.6,69,7.6c60.5,0,120.2-17.1,165.8-49L499,641.5z"/>
	<linearGradient id="SVGID_5_" gradientUnits="userSpaceOnUse" x1="299.3868" y1="723.5429" x2="481.3139" y2="661.7455">
		<stop  offset="0" style="stop-color:#D7DCE0"/>
		<stop  offset="1" style="stop-color:#FF8564"/>
	</linearGradient>
	<path class="st9" d="M290.1,723.8c-4.9,0-9.8-0.1-14.7-0.4l0.1-1.2c83.5,4.1,169-27.1,223.2-81.2l0.8,0.8
		C448.2,693.1,369.1,723.8,290.1,723.8z"/>
	<linearGradient id="SVGID_6_" gradientUnits="userSpaceOnUse" x1="352.0888" y1="790.5178" x2="476.2612" y2="662.3025">
		<stop  offset="0" style="stop-color:#575E6B"/>
		<stop  offset="1" style="stop-color:#FF8564"/>
	</linearGradient>
	<path class="st10" d="M499,641.5l-0.5-0.3c-43.9,62.7-122.7,108.2-205.7,118.7l0.1,1.1c78.5-9.9,153.3-51.1,198.6-108.6
		c-39.9,61-110.6,108.3-187.6,125l0.2,1.1c77.3-16.7,148.3-64.3,188.3-125.5c-34.5,64.2-100.7,117.5-176,140.8l0.3,1.1
		c75.6-23.4,142.1-77,176.7-141.4c-28.7,67-90.1,125.9-163.1,155.6l0.4,1.1c73.2-29.9,134.8-89,163.7-156.3
		c-22.8,69.2-78.8,133.2-148.9,169.3l0.5,1c70.4-36.2,126.6-100.5,149.4-170c-16.7,70.9-66.9,139.6-133.5,181.6l0.6,1
		c66.9-42.2,117.3-111.1,134.1-182.3c-10.4,72.1-54.4,144.9-117.2,192.5l0.7,0.9c66.8-50.7,112.5-129.9,119.2-206.5L499,641.5z"/>
	<linearGradient id="SVGID_7_" gradientUnits="userSpaceOnUse" x1="451.8911" y1="851.3047" x2="491.1642" y2="672.2654">
		<stop  offset="0" style="stop-color:#D7DCE0"/>
		<stop  offset="1" style="stop-color:#FF8564"/>
	</linearGradient>
	<path class="st11" d="M499.6,641.3l-0.6,0.2l-0.6,0.1c6.7,76.3-24.4,161.8-81.2,223.2l0.8,0.8c53.7-58.1,84.6-137.7,82.3-210.8
		c8.6,72.4-15.1,154-63.4,216.3l0.9,0.7c48.5-62.5,72.2-144.5,63.6-217.2c14.9,71.3-1.6,154.8-44.3,221l1,0.6
		C503.6,805.6,519.5,715.6,499.6,641.3z"/>
	<linearGradient id="SVGID_8_" gradientUnits="userSpaceOnUse" x1="541.7493" y1="857.185" x2="501.3211" y2="666.5947">
		<stop  offset="0" style="stop-color:#575E6B"/>
		<stop  offset="1" style="stop-color:#FF8564"/>
	</linearGradient>
	<path class="st12" d="M499.4,641.1l-0.4,0.4l-0.5,0.2c32.4,69.4,32.4,160.4,0,237.5l1.1,0.4c30.6-72.9,32.4-158.3,5.2-226.3
		c32.8,65.1,38.5,149.9,14.4,225l1.1,0.4c24.2-75.3,18.5-160.5-14.5-225.9c38.4,61.9,51.4,146,34,222.8l1.1,0.3
		c17.5-77.1,4.4-161.5-34.1-223.7c43.6,58.4,64,141,53.3,219l1.1,0.2c10.7-78.4-9.7-161.3-53.5-219.9c48.5,54.3,76,134.8,72.2,213.6
		l1.2,0.1C585,781.3,553.8,695.5,499.4,641.1z"/>
	<linearGradient id="SVGID_9_" gradientUnits="userSpaceOnUse" x1="616.1118" y1="837.287" x2="525.437" y2="659.4028">
		<stop  offset="0" style="stop-color:#A5ACB5"/>
		<stop  offset="1" style="stop-color:#FF8564"/>
	</linearGradient>
	<path class="st13" d="M617.4,847.6c-10.5-82.9-56-161.7-118.7-205.7l0.7-0.9c63,44.1,108.7,123.2,119.2,206.5L617.4,847.6z"/>
	<linearGradient id="SVGID_10_" gradientUnits="userSpaceOnUse" x1="654.5891" y1="787.2735" x2="528.684" y2="655.5929">
		<stop  offset="0" style="stop-color:#575E6B"/>
		<stop  offset="1" style="stop-color:#FF8564"/>
	</linearGradient>
	<path class="st14" d="M680.8,794.7l1-0.5c-38.4-74.6-108.4-133.3-182.6-153.2l-0.2,0.6l-0.2,0.5c69.4,32.4,127.9,102.1,152.6,181.9
		l1.1-0.3c-23.4-75.6-77-142.1-141.4-176.7C578,675.7,636.9,737,666.7,810l1.1-0.4c-29.9-73.2-89-134.8-156.3-163.7
		C580.7,668.6,644.7,724.6,680.8,794.7z"/>
	<linearGradient id="SVGID_11_" gradientUnits="userSpaceOnUse" x1="534.5699" y1="633.8248" x2="725.1602" y2="681.7611">
		<stop  offset="0" style="stop-color:#FF8564"/>
		<stop  offset="1" style="stop-color:#A5ACB5"/>
	</linearGradient>
	<path class="st15" d="M736.7,642l0.4-1.1c-72.9-30.6-158.3-32.4-226.3-5.2c65.1-32.8,149.9-38.5,225-14.4l0.4-1.1
		c-75.3-24.2-160.5-18.5-225.9,14.5c61.9-38.4,146-51.4,222.8-34l0.3-1.1c-81.8-18.6-171.8-2.7-234.8,41.4l0.3,0.5l-0.1,0.6
		c76.3,6.7,155.1,52.2,205.7,118.7l0.9-0.7c-47.8-63-120.9-107.2-193.3-117.7c72.7,4.1,149.1,41.6,202,100l0.9-0.8
		c-53.1-58.6-129.8-96.2-202.8-100.4c72.8-2.2,152.1,28.5,210,82l0.8-0.8c-58.1-53.7-137.7-84.6-210.8-82.3
		c72.4-8.6,154,15.1,216.3,63.4l0.7-0.9C666.7,654.2,584.7,630.4,512,639c71.3-14.9,154.8,1.6,221,44.3l0.6-1
		c-66.5-42.8-150.3-59.4-221.9-44.4c69.8-21,154.3-11.9,224,24.9l0.5-1c-70-36.9-154.9-46.1-224.9-24.9
		C579,609.8,664.1,611.5,736.7,642z"/>
	<linearGradient id="SVGID_12_" gradientUnits="userSpaceOnUse" x1="525.9164" y1="627.6561" x2="693.4048" y2="523.6978">
		<stop  offset="0" style="stop-color:#FF8564"/>
		<stop  offset="1" style="stop-color:#575E6B"/>
	</linearGradient>
	<path class="st16" d="M508.2,632c49.9-53.1,127.7-87.5,206.4-90.5l0-1.2c-79.1,3.1-157.2,37.6-207.3,90.9
		C552.5,574,627,533,705.1,523.1L705,522c-78.5,9.9-153.3,51.1-198.6,108.6c39.9-61,110.6-108.3,187.6-125l-0.2-1.1
		c-77.3,16.7-148.3,64.3-188.3,125.5c34.5-64.2,100.7-117.5,176-140.8l-0.3-1.1C601,512.8,531,571.5,498.5,641.3l0.5,0.2l0.4,0.4
		c54.2-54.2,139.7-85.3,223.2-81.2l0.1-1.2C643.6,555.7,562.8,583.3,508.2,632z"/>
	<linearGradient id="SVGID_13_" gradientUnits="userSpaceOnUse" x1="602.9036" y1="452.6272" x2="514.5389" y2="617.8054">
		<stop  offset="0" style="stop-color:#D7DCE0"/>
		<stop  offset="1" style="stop-color:#FF8564"/>
	</linearGradient>
	<path class="st17" d="M651.7,458.7c-70.4,36.2-126.6,100.5-149.4,170c16.7-70.9,66.9-139.6,133.5-181.6l-0.6-1
		c-66.9,42.2-117.3,111.1-134.1,182.3c10.4-72.1,54.4-144.9,117.2-192.5l-0.7-0.9c-63,47.8-107.2,120.9-117.7,193.3
		c4.1-72.7,41.6-149.1,100-202l-0.8-0.9c-58.6,53.2-96.2,129.8-100.4,202.8c-2.3-72.8,28.5-152.1,82-210l-0.8-0.8
		c-57,61.6-88.2,147.4-81.5,224l0.6-0.1l0.6,0.2c19.8-74,78.3-143.7,152.7-181.9L651.7,458.7z"/>
</g>
<g>
	<linearGradient id="SVGID_14_" gradientUnits="userSpaceOnUse" x1="471.7459" y1="640.5997" x2="526.2542" y2="640.5997">
		<stop  offset="0" style="stop-color:#FF8564"/>
		<stop  offset="1" style="stop-color:#F95F53"/>
	</linearGradient>
	<path class="st18" d="M471.8,634.9l5.3,23c0.3,1.3,1.5,2.5,2.7,2.9l24.1,7.4c0.3,0.1,0.7,0.1,1,0.1c1.1,0,2.1-0.4,2.8-1l17.3-16.1
		c0.9-0.9,1.5-2.5,1.1-3.7l-5.7-24.6c-0.3-1.3-1.5-2.5-2.7-2.9l-22.6-6.9c-0.3-0.1-0.7-0.1-1-0.1c-1.1,0-2.1,0.4-2.8,1l-18.5,17.2
		C472,632,471.6,633.7,471.8,634.9z"/>
	<g>
		<path class="st0" d="M501.4,662.7l-16.5-5.1c-0.7-0.2-0.7-0.5,0-0.7l8.7-2c0.7-0.1,1.6,0.1,2.1,0.6l6.1,6.5
			C502.2,662.7,502.1,662.9,501.4,662.7z"/>
		<path class="st0" d="M491.1,633c-0.1-0.7,0.3-1.1,0.9-0.9l17.9,5.5c0.7,0.2,0.8,0.7,0.3,1.2l-13.7,12.7c-0.5,0.5-1,0.3-1.2-0.3
			L491.1,633z"/>
		<path class="st0" d="M520.6,649.3L506,662.7c-0.5,0.5-1.3,0.4-1.7-0.1l-7.3-7.9c-0.5-0.5-0.4-1.3,0.1-1.7l14.5-13.5
			c0.5-0.5,1.3-0.4,1.7,0.1l7.3,7.9C521.1,648,521.1,648.8,520.6,649.3z"/>
		<path class="st0" d="M517,627.8l3.9,16.9c0.1,0.7-0.1,0.8-0.5,0.3l-6.1-6.5c-0.5-0.5-0.7-1.4-0.5-2.1l2.7-8.5
			C516.6,627.1,516.9,627.1,517,627.8z"/>
		<path class="st0" d="M495.8,618l18.9,5.8c0.7,0.2,1,0.9,0.8,1.5l-3.1,10.2c-0.2,0.7-0.9,1-1.5,0.8l-18.9-5.8
			c-0.7-0.2-1-0.9-0.8-1.5l3.1-10.2C494.5,618.1,495.2,617.8,495.8,618z"/>
		<path class="st0" d="M479,631.7l12.7-11.8c0.5-0.5,0.7-0.3,0.5,0.3l-2.7,8.5c-0.2,0.7-0.9,1.3-1.5,1.5l-8.7,2
			C478.6,632.5,478.5,632.2,479,631.7z"/>
		<path class="st0" d="M477.6,634.3l10.5-2.4c0.7-0.1,1.3,0.3,1.5,0.9l4.4,19.3c0.1,0.7-0.3,1.3-0.9,1.5l-10.5,2.4
			c-0.7,0.1-1.3-0.3-1.5-0.9l-4.4-19.3C476.5,635.1,477,634.4,477.6,634.3z"/>
	</g>
</g>
</svg>
